<svg xmlns="http://www.w3.org/2000/svg" width="12.844" height="10.71" viewBox="0 0 12.844 10.71">
  <path id="Path_47" data-name="Path 47" d="M12.843.011V9.771c0,.007-.013.013-.014.02a1.1,1.1,0,0,1-1.149.919c-3.052-.009-6.1,0-9.156,0a1.518,1.518,0,0,1-1.5-1.117C.717,8.569.408,7.551.1,6.531A2.067,2.067,0,0,1,.578,4.437C1.517,3.393,2.45,2.342,3.4,1.308A3.842,3.842,0,0,1,6.3.008c2.132-.014,4.264,0,6.4,0,.05,0,.1,0,.15.006M1.68,4.813H11.763V1.071h-.156c-1.773,0-3.546-.011-5.319,0A2.788,2.788,0,0,0,4.217,2c-.5.531-.976,1.079-1.463,1.62L1.68,4.813M11.762,5.9H9.639v1.06h2.122Z" transform="translate(0 0)" fill="#212529"/>
</svg>
