<svg xmlns="http://www.w3.org/2000/svg" width="11.284" height="11.362" viewBox="0 0 11.284 11.362">
  <path id="Path_46" data-name="Path 46" d="M9.7,6.521H8.062v.14q0,1.942,0,3.884a.794.794,0,0,1-1.582.114c-.005-.062,0-.124,0-.186q0-1.9,0-3.8V6.525H4.821v.144q0,1.907,0,3.815a.792.792,0,1,1-1.582.034c0-1.283,0-2.566,0-3.849V6.516H3.091c-.765,0-1.53,0-2.3,0a.751.751,0,0,1-.781-.6A.655.655,0,0,1,0,5.78Q0,3.3,0,.814A.789.789,0,0,1,1.549.6a1.111,1.111,0,0,1,.036.3q0,1.878,0,3.756v.148H3.232v-.15q0-1.913,0-3.826A.794.794,0,1,1,4.82.813c0,1.012,0,2.024,0,3.035q0,.413,0,.826v.133h1.64V4.668q0-1.925,0-3.849A.794.794,0,0,1,8.043.7c.007.073.007.147.007.221q0,1.872,0,3.745v.145H9.7V4.664q0-1.9,0-3.8a.793.793,0,0,1,1.583-.1c0,.039,0,.078,0,.116q0,4.8,0,9.606a.781.781,0,0,1-.472.774A.789.789,0,0,1,9.7,10.553c-.008-.4,0-.791,0-1.186q0-1.349,0-2.7V6.521" transform="translate(0 0)" fill="#212529"/>
</svg>
