<svg xmlns="http://www.w3.org/2000/svg" width="8.82" height="10.938" viewBox="0 0 8.82 10.938">
  <path id="Path_45" data-name="Path 45" d="M7.426,10.938a1.1,1.1,0,0,0,.691-.41,1.046,1.046,0,0,0,.178-.336c.177-.666.35-1.334.507-2.005a.544.544,0,0,0-.563-.7c-.342,0-.683.039-1.024.063l-1.963.141-1.227.087c-.031,0-.063,0-.105,0q-.087-.406-.174-.811-.356-1.679-.713-3.359A1.02,1.02,0,0,0,2,2.779c-.25,0-.5,0-.749,0-.163,0-.325.019-.5.03l-.09-.767a5.311,5.311,0,0,0,1.333.043A.761.761,0,0,0,2.7,1.166,1.314,1.314,0,0,0,2.328.325,1.135,1.135,0,0,0,1.548,0C1.33,0,1.113,0,.895,0A.865.865,0,0,0,0,.91c.014.237.064.471.091.707Q.22,2.735.342,3.854.469,5.01.59,6.167.7,7.218.813,8.268c.068.637.126,1.275.212,1.909a.861.861,0,0,0,.7.741.413.413,0,0,1,.048.019Z" transform="translate(0 0)" fill="#212529"/>
</svg>
